Coordinates
version=1
nRows=7
nColumns=63
inDegrees=yes

Units are S.I. units (second, meters, Newtons, ...)
If the header above contains a line with 'inDegrees', this indicates whether rotational values are in degrees (yes) or radians (no).

endheader
time	pelvis_tilt	pelvis_list	pelvis_rotation	pelvis_tx	pelvis_ty	pelvis_tz	hip_flexion_r	hip_adduction_r	hip_rotation_r	knee_angle_r	knee_angle_r_beta	ankle_angle_r	subtalar_angle_r	mtp_angle_r	hip_flexion_l	hip_adduction_l	hip_rotation_l	knee_angle_l	knee_angle_l_beta	ankle_angle_l	subtalar_angle_l	mtp_angle_l	L5_S1_Flex_Ext	L5_S1_Lat_Bending	L5_S1_axial_rotation	L4_L5_Flex_Ext	L4_L5_Lat_Bending	L4_L5_axial_rotation	L3_L4_Flex_Ext	L3_L4_Lat_Bending	L3_L4_axial_rotation	L2_L3_Flex_Ext	L2_L3_Lat_Bending	L2_L3_axial_rotation	L1_L2_Flex_Ext	L1_L2_Lat_Bending	L1_L2_axial_rotation	L1_T12_Flex_Ext	L1_T12_Lat_Bending	L1_T12_axial_rotation	Abs_r3	Abs_r2	Abs_r1	Abs_t1	Abs_t2	neck_flexion	neck_bending	neck_rotation	arm_flex_r	arm_add_r	arm_rot_r	elbow_flex_r	pro_sup_r	wrist_flex_r	wrist_dev_r	arm_flex_l	arm_add_l	arm_rot_l	elbow_flex_l	pro_sup_l	wrist_flex_l	wrist_dev_l
      0.00800000	    -50.39075592	     -3.45288225	      0.22697934	     -0.37211067	      1.11609879	      0.05341772	    116.41194457	     -5.22989246	     -2.24179081	     96.18702659	      1.67878031	     11.86913489	      2.27458924	      0.00000000	     88.53787686	     -9.78454284	     -0.08859814	     76.86588662	      1.34156280	     11.38390337	     12.75545749	      0.00000000	     -0.09181946	      0.20510210	      0.85922542	     -0.17051791	      0.27278580	      0.91292701	     -0.15085019	      0.49868526	      0.91292701	     -0.10494046	      0.49868526	      0.75182225	     -0.08526355	      0.41824421	      0.69812066	     -0.05246564	      0.31770316	      0.64441907	     -0.65585720	      2.32015603	      4.77875405	      0.00000000	      0.00000000	      0.00000000	      0.00000000	      0.00000001	     70.85872405	    -15.33612716	      9.48173662	     34.99639546	     55.21941074	      0.00000000	      4.26259865	     71.08374756	     -5.18966264	     15.39778931	     32.80969286	     55.88978040	      0.00000000	      4.26259865
      0.01700000	    -50.32410021	     -3.35687452	      0.49580700	     -0.37302909	      1.11602729	      0.05343874	    114.93259270	     -5.25601456	     -2.36303981	     92.58023275	      1.61582988	     11.24409410	      2.23403605	      0.00000000	     89.79012480	    -10.00380458	     -0.70297663	     80.92806016	      1.41246111	     11.77251306	     11.61711245	      0.00000000	     -0.09261823	      0.16324452	      0.84240450	     -0.17200131	      0.21711522	      0.89505478	     -0.15216248	      0.39691273	      0.89505478	     -0.10585337	      0.39691273	      0.73710394	     -0.08600528	      0.33288823	      0.68445366	     -0.05292205	      0.25286577	      0.63180338	     -0.66156272	      1.84665469	      4.68520112	      0.00000000	      0.00000000	      0.00000000	      0.00000000	      0.00000001	     70.93161152	    -15.42140058	      9.69549760	     34.42160159	     55.27639428	      0.00000000	      4.27761532	     71.47506042	     -4.96503463	     15.36466305	     32.29417909	     55.92559549	      0.00000000	      4.27761532
      0.02500000	    -50.33432115	     -3.66764086	      0.75531120	     -0.37308383	      1.11605905	      0.05254385	    114.34329989	     -5.60515664	     -2.67856448	     91.44941065	      1.59609331	     11.17473137	      2.22118121	      0.00000000	     90.31397319	     -9.79193788	     -0.43068551	     82.08050396	      1.43257505	     11.54805827	     10.82756026	      0.00000000	     -0.09215339	      0.20708036	      0.79015061	     -0.17113805	      0.27541687	      0.83953502	     -0.15139880	      0.50349518	      0.83953502	     -0.10532210	      0.50349518	      0.69138178	     -0.08557363	      0.42227826	      0.64199737	     -0.05265644	      0.32076747	      0.59261295	     -0.65824242	      2.34253440	      4.39458062	      0.00000000	      0.00000000	      0.00000000	      0.00000000	      0.00000001	     71.09977663	    -15.59096242	     10.33867160	     34.41744944	     55.25216505	      0.00000000	      4.32414674	     71.34178670	     -4.97606484	     15.26616936	     32.50514955	     55.79068614	      0.00000000	      4.32414674
      0.03300000	    -50.35217713	     -3.86445917	      1.00341333	     -0.37308683	      1.11612513	      0.05172386	    113.66171326	     -5.90936960	     -2.91895521	     90.12888859	      1.57304586	     11.18642315	      2.41055936	      0.00000000	     90.85124672	     -9.60128928	     -0.19092773	     83.34585564	      1.45465960	     11.50198630	     10.62298676	      0.00000000	     -0.09231471	      0.23558398	      0.73953350	     -0.17143765	      0.31332670	      0.78575435	     -0.15166384	      0.57279889	      0.78575435	     -0.10550648	      0.57279889	      0.64709181	     -0.08572344	      0.48040285	      0.60087097	     -0.05274862	      0.36491959	      0.55465013	     -0.65939474	      2.66497311	      4.11306348	      0.00000000	      0.00000000	      0.00000000	      0.00000000	      0.00000001	     71.21553680	    -15.66989051	     10.71114642	     34.39003336	     55.17747601	      0.00000000	      4.35566328	     71.21582950	     -4.97767494	     15.14905561	     32.69476105	     55.63932114	      0.00000000	      4.35566328
      0.04200000	    -50.36732061	     -3.85631864	      1.37291683	     -0.37297825	      1.11611445	      0.05090366	    112.96694395	     -6.22591516	     -2.90111672	     88.75016666	      1.54898262	     11.09933652	      2.45179775	      0.00000000	     91.37747969	     -9.26800521	     -0.15138269	     84.73777617	      1.47895319	     11.52812905	     10.20379516	      0.00000000	     -0.09314608	      0.23683625	      0.65999606	     -0.17298158	      0.31499222	      0.70124581	     -0.15302969	      0.57584366	      0.70124581	     -0.10645665	      0.57584366	      0.57749655	     -0.08649545	      0.48295649	      0.53624680	     -0.05322367	      0.36685936	      0.49499704	     -0.66533313	      2.67913905	      3.67070007	      0.00000000	      0.00000000	      0.00000000	      0.00000000	      0.00000001	     71.16311202	    -15.66167308	     10.84056247	     34.59732520	     54.99981500	      0.00000000	      4.38159988	     71.09634712	     -5.08149980	     15.06852307	     32.93416558	     55.42422769	      0.00000000	      4.38159988
      0.05000000	    -50.40452157	     -4.31854547	      1.58449959	     -0.37297435	      1.11627914	      0.04986962	    111.98749307	     -6.57200075	     -3.43550196	     87.02247789	      1.51882876	     11.39339461	      2.77479158	      0.00000000	     92.13863008	     -9.06871520	      0.49198112	     86.28937683	      1.50603374	     11.56225266	     10.13952512	      0.00000000	     -0.09012297	      0.30526197	      0.60738416	     -0.16736737	      0.40599842	      0.64534567	     -0.14806303	      0.74221395	      0.64534567	     -0.10300154	      0.74221395	      0.53146114	     -0.08368819	      0.62249021	      0.49349963	     -0.05149627	      0.47285079	      0.45553812	     -0.64373938	      3.45318445	      3.37808847	      0.00000000	      0.00000000	      0.00000000	      0.00000000	      0.00000001	     71.32799742	    -15.69582126	     11.10025630	     34.61028993	     55.05825432	      0.00000000	      4.39172187	     70.87356280	     -5.14713609	     14.93251546	     33.24396659	     55.42250346	      0.00000000	      4.39172187
      0.05800000	    -50.42366490	     -4.68534425	      1.91890922	     -0.37300987	      1.11636210	      0.04881065	    110.98878174	     -7.04436216	     -3.91126093	     85.30296392	      1.48881758	     11.59097188	      3.13125522	      0.00000000	     92.91955441	     -8.75886254	      1.02025181	     87.93394183	      1.53473681	     11.63075417	     10.07883090	      0.00000000	     -0.09169176	      0.35619257	      0.54241666	     -0.17028077	      0.47373612	      0.57631770	     -0.15064039	      0.86604662	      0.57631770	     -0.10479451	      0.86604662	      0.47461458	     -0.08514497	      0.72634789	      0.44071354	     -0.05239267	      0.55174229	      0.40681250	     -0.65494506	      4.02932160	      3.01675874	      0.00000000	      0.00000000	      0.00000000	      0.00000000	      0.00000001	     71.49734527	    -15.81357599	     11.42595950	     34.58966911	     55.13229829	      0.00000000	      4.40388732	     70.69849704	     -5.08620549	     14.59111850	     33.58770301	     55.38973920	      0.00000000	      4.40388732
